<svg xmlns="http://www.w3.org/2000/svg">
  <symbol id="ship" viewBox="0 0 24 24">
    <!-- <path fill="gray" d="M8 10 l2 8 l-6 2z"/> -->
    <!-- <path d="M12 0 l4 4 l-4 16 l-4 -16z"/> -->
    <!-- <path d="M12 0 l4 4 l-3 12 h-2 l-3 -12z"/>
    <path fill="gray" d="M16 10 l-2 8 l6 2z"/> -->
    <!-- <path fill="cyan" d="M11 16 l1 8 L13 16z"/> -->
    <path d="M11 0 h2 l2 10 l4 8 l-4 -2 h-1 l-2 1 l-2 -1 h-1 l-4 2 l4 -8z"/>
    <path fill="black" d="M12 4 l2 8 l-2 2 l-2 -2z"/>
    <path fill="white" d="M12 6 l1 5 l-1 -1z"/>
    <path fill="cyan" d="M10 16 l2 1 l2 -1 l-2 6z"/>
    <path fill="gray" d="M8 7 v5 l-2 4 l1 -8z"/>
    <path fill="gray" d="M16 7 l1 1 l1 8 l-2 -4z"/>
  </symbol>
</svg>
